# MagicaVoxel @ Ephtracy

# material
mtllib shrub.mtl
usemtl palette

# normals
vn -1 0 0
vn 1 0 0
vn 0 0 1
vn 0 0 -1
vn 0 -1 0
vn 0 1 0

# texcoords
vt 0.884766 0.5
vt 0.896484 0.5
vt 0.900391 0.5

# verts
v -24 4 11
v -24 4 8
v -24 6 11
v -24 6 10
v -24 7 12
v -24 7 11
v -24 7 10
v -24 7 9
v -24 8 12
v -24 8 11
v -24 8 10
v -24 8 9
v -24 8 8
v -24 9 11
v -24 9 9
v -24 9 8
v -23 2 11
v -23 2 8
v -23 4 11
v -23 4 8
v -23 5 12
v -23 5 11
v -23 5 8
v -23 5 7
v -23 6 12
v -23 6 11
v -23 6 8
v -23 6 7
v -23 9 11
v -23 9 10
v -23 9 9
v -23 9 8
v -23 10 11
v -23 10 10
v -23 10 9
v -23 10 8
v -22 0 11
v -22 0 8
v -22 2 11
v -22 2 8
v -22 8 12
v -22 8 11
v -22 9 12
v -22 9 11
v -22 10 11
v -22 10 10
v -22 10 9
v -22 10 8
v -22 11 11
v -22 11 8
v -21 5 8
v -21 5 7
v -21 6 8
v -21 6 7
v -21 8 8
v -21 8 7
v -21 9 8
v -21 9 7
v -20 6 12
v -20 6 11
v -20 7 12
v -20 7 11
v -20 7 8
v -20 7 7
v -20 8 8
v -20 8 7
v -19 5 12
v -19 5 11
v -19 5 8
v -19 5 7
v -19 6 12
v -19 6 11
v -19 6 8
v -19 6 7
v -23 7 12
v -23 7 11
v -23 8 12
v -23 8 11
v -22 5 12
v -22 5 11
v -22 5 8
v -22 5 7
v -22 6 12
v -22 6 11
v -22 6 8
v -22 6 7
v -21 8 12
v -21 8 11
v -21 9 12
v -21 9 11
v -20 5 8
v -20 5 7
v -20 6 8
v -20 6 7
v -20 8 8
v -20 8 7
v -20 9 8
v -20 9 7
v -19 0 11
v -19 0 8
v -19 2 11
v -19 2 8
v -19 6 12
v -19 6 11
v -19 7 12
v -19 7 11
v -19 7 8
v -19 7 7
v -19 8 8
v -19 8 7
v -19 10 11
v -19 10 9
v -19 10 8
v -19 11 11
v -19 11 8
v -18 2 11
v -18 2 8
v -18 4 11
v -18 4 8
v -18 5 12
v -18 5 11
v -18 5 8
v -18 5 7
v -18 6 12
v -18 6 11
v -18 6 8
v -18 6 7
v -18 9 11
v -18 9 9
v -18 9 8
v -18 10 11
v -18 10 9
v -18 10 8
v -17 4 11
v -17 4 8
v -17 6 10
v -17 6 9
v -17 7 10
v -17 7 9
v -17 8 9
v -17 8 8
v -17 9 11
v -17 9 9
v -17 9 8
v -24 7 12
v -24 8 12
v -23 5 12
v -23 6 12
v -23 7 12
v -23 8 12
v -22 5 12
v -22 6 12
v -22 8 12
v -22 9 12
v -21 8 12
v -21 9 12
v -20 6 12
v -20 7 12
v -19 5 12
v -19 6 12
v -19 7 12
v -18 5 12
v -18 6 12
v -24 4 11
v -24 6 11
v -24 7 11
v -24 8 11
v -24 9 11
v -23 2 11
v -23 4 11
v -23 5 11
v -23 6 11
v -23 7 11
v -23 8 11
v -23 9 11
v -23 10 11
v -22 0 11
v -22 2 11
v -22 5 11
v -22 6 11
v -22 7 11
v -22 8 11
v -22 9 11
v -22 10 11
v -22 11 11
v -21 6 11
v -21 7 11
v -21 8 11
v -21 9 11
v -20 6 11
v -20 7 11
v -20 8 11
v -20 10 11
v -19 0 11
v -19 2 11
v -19 5 11
v -19 6 11
v -19 7 11
v -19 8 11
v -19 10 11
v -19 11 11
v -18 2 11
v -18 4 11
v -18 5 11
v -18 6 11
v -18 7 11
v -18 8 11
v -18 9 11
v -18 10 11
v -17 4 11
v -17 9 11
v -24 4 8
v -24 8 8
v -24 9 8
v -23 2 8
v -23 4 8
v -23 5 8
v -23 6 8
v -23 7 8
v -23 8 8
v -23 9 8
v -23 10 8
v -22 0 8
v -22 2 8
v -22 5 8
v -22 6 8
v -22 7 8
v -22 8 8
v -22 9 8
v -22 10 8
v -22 11 8
v -21 5 8
v -21 6 8
v -21 7 8
v -21 8 8
v -21 9 8
v -21 10 8
v -20 5 8
v -20 6 8
v -20 7 8
v -20 8 8
v -20 9 8
v -20 10 8
v -19 0 8
v -19 2 8
v -19 5 8
v -19 6 8
v -19 7 8
v -19 8 8
v -19 9 8
v -19 10 8
v -19 11 8
v -18 2 8
v -18 4 8
v -18 5 8
v -18 6 8
v -18 7 8
v -18 8 8
v -18 9 8
v -18 10 8
v -17 4 8
v -17 8 8
v -17 9 8
v -23 5 7
v -23 6 7
v -22 5 7
v -22 6 7
v -21 5 7
v -21 6 7
v -21 8 7
v -21 9 7
v -20 5 7
v -20 6 7
v -20 7 7
v -20 8 7
v -20 9 7
v -19 5 7
v -19 6 7
v -19 7 7
v -19 8 7
v -18 5 7
v -18 6 7
v -22 0 11
v -19 0 11
v -22 0 8
v -19 0 8
v -23 2 11
v -22 2 11
v -19 2 11
v -18 2 11
v -23 2 8
v -22 2 8
v -19 2 8
v -18 2 8
v -24 4 11
v -23 4 11
v -18 4 11
v -17 4 11
v -24 4 8
v -23 4 8
v -18 4 8
v -17 4 8
v -23 5 12
v -22 5 12
v -19 5 12
v -18 5 12
v -23 5 11
v -22 5 11
v -19 5 11
v -18 5 11
v -23 5 8
v -22 5 8
v -21 5 8
v -20 5 8
v -19 5 8
v -18 5 8
v -23 5 7
v -22 5 7
v -21 5 7
v -20 5 7
v -19 5 7
v -18 5 7
v -20 6 12
v -19 6 12
v -20 6 11
v -19 6 11
v -24 7 12
v -23 7 12
v -24 7 11
v -23 7 11
v -20 7 8
v -19 7 8
v -20 7 7
v -19 7 7
v -22 8 12
v -21 8 12
v -22 8 11
v -21 8 11
v -21 8 8
v -20 8 8
v -21 8 7
v -20 8 7
v -23 6 12
v -22 6 12
v -19 6 12
v -18 6 12
v -23 6 11
v -22 6 11
v -19 6 11
v -18 6 11
v -23 6 8
v -22 6 8
v -21 6 8
v -20 6 8
v -19 6 8
v -18 6 8
v -23 6 7
v -22 6 7
v -21 6 7
v -20 6 7
v -19 6 7
v -18 6 7
v -20 7 12
v -19 7 12
v -20 7 11
v -19 7 11
v -24 8 12
v -23 8 12
v -24 8 11
v -23 8 11
v -20 8 8
v -19 8 8
v -20 8 7
v -19 8 7
v -22 9 12
v -21 9 12
v -24 9 11
v -23 9 11
v -22 9 11
v -21 9 11
v -18 9 11
v -17 9 11
v -23 9 10
v -24 9 9
v -23 9 9
v -18 9 9
v -17 9 9
v -24 9 8
v -23 9 8
v -21 9 8
v -20 9 8
v -18 9 8
v -17 9 8
v -21 9 7
v -20 9 7
v -23 10 11
v -22 10 11
v -19 10 11
v -18 10 11
v -23 10 10
v -22 10 10
v -23 10 9
v -22 10 9
v -19 10 9
v -18 10 9
v -23 10 8
v -22 10 8
v -19 10 8
v -18 10 8
v -22 11 11
v -19 11 11
v -22 11 8
v -19 11 8

# faces
f 3/1/1 2/1/1 1/1/1
f 4/1/1 2/1/1 3/1/1
f 6/2/1 4/2/1 3/2/1
f 7/1/1 2/1/1 4/1/1
f 7/2/1 4/2/1 6/2/1
f 8/1/1 2/1/1 7/1/1
f 9/2/1 6/2/1 5/2/1
f 10/1/1 7/1/1 6/1/1
f 10/2/1 6/2/1 9/2/1
f 11/2/1 8/2/1 7/2/1
f 11/1/1 7/1/1 10/1/1
f 12/1/1 2/1/1 8/1/1
f 12/2/1 8/2/1 11/2/1
f 13/1/1 2/1/1 12/1/1
f 14/1/1 11/1/1 10/1/1
f 14/1/1 12/1/1 11/1/1
f 15/2/1 13/2/1 12/2/1
f 15/1/1 12/1/1 14/1/1
f 16/2/1 13/2/1 15/2/1
f 19/1/1 18/1/1 17/1/1
f 20/1/1 18/1/1 19/1/1
f 25/2/1 22/2/1 21/2/1
f 26/2/1 22/2/1 25/2/1
f 27/2/1 24/2/1 23/2/1
f 28/2/1 24/2/1 27/2/1
f 33/1/1 30/1/1 29/1/1
f 34/2/1 31/2/1 30/2/1
f 34/1/1 30/1/1 33/1/1
f 35/1/1 32/1/1 31/1/1
f 35/2/1 31/2/1 34/2/1
f 36/1/1 32/1/1 35/1/1
f 39/3/1 38/3/1 37/3/1
f 40/3/1 38/3/1 39/3/1
f 43/2/1 42/2/1 41/2/1
f 44/2/1 42/2/1 43/2/1
f 49/1/1 46/1/1 45/1/1
f 49/1/1 48/1/1 47/1/1
f 49/1/1 47/1/1 46/1/1
f 50/1/1 48/1/1 49/1/1
f 53/2/1 52/2/1 51/2/1
f 54/2/1 52/2/1 53/2/1
f 57/2/1 56/2/1 55/2/1
f 58/2/1 56/2/1 57/2/1
f 61/2/1 60/2/1 59/2/1
f 62/2/1 60/2/1 61/2/1
f 65/2/1 64/2/1 63/2/1
f 66/2/1 64/2/1 65/2/1
f 71/2/1 68/2/1 67/2/1
f 72/2/1 68/2/1 71/2/1
f 73/2/1 70/2/1 69/2/1
f 74/2/1 70/2/1 73/2/1
f 75/2/2 76/2/2 77/2/2
f 77/2/2 76/2/2 78/2/2
f 79/2/2 80/2/2 83/2/2
f 83/2/2 80/2/2 84/2/2
f 81/2/2 82/2/2 85/2/2
f 85/2/2 82/2/2 86/2/2
f 87/2/2 88/2/2 89/2/2
f 89/2/2 88/2/2 90/2/2
f 91/2/2 92/2/2 93/2/2
f 93/2/2 92/2/2 94/2/2
f 95/2/2 96/2/2 97/2/2
f 97/2/2 96/2/2 98/2/2
f 99/3/2 100/3/2 101/3/2
f 101/3/2 100/3/2 102/3/2
f 103/2/2 104/2/2 105/2/2
f 105/2/2 104/2/2 106/2/2
f 107/2/2 108/2/2 109/2/2
f 109/2/2 108/2/2 110/2/2
f 111/1/2 112/1/2 114/1/2
f 112/1/2 113/1/2 114/1/2
f 114/1/2 113/1/2 115/1/2
f 116/1/2 117/1/2 118/1/2
f 118/1/2 117/1/2 119/1/2
f 120/2/2 121/2/2 124/2/2
f 124/2/2 121/2/2 125/2/2
f 122/2/2 123/2/2 126/2/2
f 126/2/2 123/2/2 127/2/2
f 128/1/2 129/1/2 131/1/2
f 129/2/2 130/2/2 132/2/2
f 131/1/2 129/1/2 132/1/2
f 132/2/2 130/2/2 133/2/2
f 134/1/2 135/1/2 136/1/2
f 136/1/2 135/1/2 137/1/2
f 134/1/2 136/1/2 138/1/2
f 136/2/2 137/2/2 138/2/2
f 137/1/2 135/1/2 139/1/2
f 138/2/2 137/2/2 139/2/2
f 138/1/2 139/1/2 140/1/2
f 139/1/2 135/1/2 140/1/2
f 140/1/2 135/1/2 141/1/2
f 134/1/2 138/1/2 142/1/2
f 138/1/2 140/1/2 142/1/2
f 140/2/2 141/2/2 143/2/2
f 142/1/2 140/1/2 143/1/2
f 143/2/2 141/2/2 144/2/2
f 149/2/3 146/2/3 145/2/3
f 150/2/3 146/2/3 149/2/3
f 151/2/3 148/2/3 147/2/3
f 152/2/3 148/2/3 151/2/3
f 155/2/3 154/2/3 153/2/3
f 156/2/3 154/2/3 155/2/3
f 160/2/3 158/2/3 157/2/3
f 161/2/3 158/2/3 160/2/3
f 162/2/3 160/2/3 159/2/3
f 163/2/3 160/2/3 162/2/3
f 170/1/3 165/1/3 164/1/3
f 171/1/3 165/1/3 170/1/3
f 172/2/3 166/2/3 165/2/3
f 172/1/3 165/1/3 171/1/3
f 173/2/3 166/2/3 172/2/3
f 174/1/3 168/1/3 167/1/3
f 175/1/3 168/1/3 174/1/3
f 178/1/3 171/1/3 170/1/3
f 178/1/3 170/1/3 169/1/3
f 179/1/3 171/1/3 178/1/3
f 180/1/3 173/1/3 172/1/3
f 180/1/3 174/1/3 173/1/3
f 181/1/3 174/1/3 180/1/3
f 182/2/3 175/2/3 174/2/3
f 182/1/3 174/1/3 181/1/3
f 183/1/3 176/1/3 175/1/3
f 183/2/3 175/2/3 182/2/3
f 184/1/3 176/1/3 183/1/3
f 186/1/3 179/1/3 178/1/3
f 186/2/3 181/2/3 180/2/3
f 186/1/3 180/1/3 179/1/3
f 187/1/3 182/1/3 181/1/3
f 187/2/3 181/2/3 186/2/3
f 188/1/3 182/1/3 187/1/3
f 189/1/3 185/1/3 184/1/3
f 189/1/3 184/1/3 183/1/3
f 190/1/3 187/1/3 186/1/3
f 190/1/3 186/1/3 178/1/3
f 191/2/3 188/2/3 187/2/3
f 191/1/3 187/1/3 190/1/3
f 192/1/3 189/1/3 188/1/3
f 192/2/3 188/2/3 191/2/3
f 193/1/3 185/1/3 189/1/3
f 193/1/3 189/1/3 192/1/3
f 194/3/3 178/3/3 177/3/3
f 195/1/3 190/1/3 178/1/3
f 195/3/3 178/3/3 194/3/3
f 196/1/3 190/1/3 195/1/3
f 197/1/3 190/1/3 196/1/3
f 198/1/3 192/1/3 191/1/3
f 199/2/3 193/2/3 192/2/3
f 199/1/3 192/1/3 198/1/3
f 200/1/3 185/1/3 193/1/3
f 200/2/3 193/2/3 199/2/3
f 201/1/3 185/1/3 200/1/3
f 202/1/3 196/1/3 195/1/3
f 203/1/3 196/1/3 202/1/3
f 204/1/3 196/1/3 203/1/3
f 205/1/3 198/1/3 197/1/3
f 206/2/3 199/2/3 198/2/3
f 206/1/3 198/1/3 205/1/3
f 207/1/3 200/1/3 199/1/3
f 207/2/3 199/2/3 206/2/3
f 208/1/3 200/1/3 207/1/3
f 209/1/3 200/1/3 208/1/3
f 210/1/3 205/1/3 204/1/3
f 210/1/3 204/1/3 203/1/3
f 210/1/3 208/1/3 207/1/3
f 210/1/3 207/1/3 206/1/3
f 210/1/3 206/1/3 205/1/3
f 211/1/3 208/1/3 210/1/3
f 212/1/4 213/1/4 216/1/4
f 216/1/4 213/1/4 217/1/4
f 217/1/4 213/1/4 218/1/4
f 218/1/4 213/1/4 219/1/4
f 213/2/4 214/2/4 220/2/4
f 219/1/4 213/1/4 220/1/4
f 220/2/4 214/2/4 221/2/4
f 215/1/4 216/1/4 224/1/4
f 216/1/4 217/1/4 224/1/4
f 224/1/4 217/1/4 225/1/4
f 218/2/4 219/2/4 226/2/4
f 220/1/4 221/1/4 227/1/4
f 219/1/4 220/1/4 227/1/4
f 226/2/4 219/2/4 227/2/4
f 221/1/4 222/1/4 227/1/4
f 227/1/4 222/1/4 228/1/4
f 228/1/4 222/1/4 229/1/4
f 229/1/4 222/1/4 230/1/4
f 224/1/4 225/1/4 232/1/4
f 225/1/4 226/1/4 232/1/4
f 226/1/4 227/1/4 232/1/4
f 227/1/4 228/1/4 232/1/4
f 232/1/4 228/1/4 233/1/4
f 233/1/4 228/1/4 234/1/4
f 228/2/4 229/2/4 235/2/4
f 234/1/4 228/1/4 235/1/4
f 230/1/4 231/1/4 236/1/4
f 235/2/4 229/2/4 236/2/4
f 229/1/4 230/1/4 236/1/4
f 236/1/4 231/1/4 237/1/4
f 224/1/4 232/1/4 238/1/4
f 233/2/4 234/2/4 239/2/4
f 234/1/4 235/1/4 240/1/4
f 239/2/4 234/2/4 240/2/4
f 240/1/4 235/1/4 241/1/4
f 236/2/4 237/2/4 242/2/4
f 237/1/4 231/1/4 243/1/4
f 242/2/4 237/2/4 243/2/4
f 223/3/4 224/3/4 244/3/4
f 238/1/4 239/1/4 245/1/4
f 244/3/4 224/3/4 245/3/4
f 224/1/4 238/1/4 245/1/4
f 239/1/4 240/1/4 245/1/4
f 245/1/4 240/1/4 246/1/4
f 246/1/4 240/1/4 247/1/4
f 247/1/4 240/1/4 248/1/4
f 241/1/4 242/1/4 249/1/4
f 242/1/4 243/1/4 249/1/4
f 249/1/4 243/1/4 250/1/4
f 243/1/4 231/1/4 251/1/4
f 250/1/4 243/1/4 251/1/4
f 251/1/4 231/1/4 252/1/4
f 245/1/4 246/1/4 253/1/4
f 253/1/4 246/1/4 254/1/4
f 254/1/4 246/1/4 255/1/4
f 247/1/4 248/1/4 256/1/4
f 248/2/4 249/2/4 257/2/4
f 256/1/4 248/1/4 257/1/4
f 249/1/4 250/1/4 258/1/4
f 257/2/4 249/2/4 258/2/4
f 250/2/4 251/2/4 259/2/4
f 258/1/4 250/1/4 259/1/4
f 259/2/4 251/2/4 260/2/4
f 254/1/4 255/1/4 261/1/4
f 256/1/4 257/1/4 261/1/4
f 257/1/4 258/1/4 261/1/4
f 255/1/4 256/1/4 261/1/4
f 258/2/4 259/2/4 262/2/4
f 261/1/4 258/1/4 262/1/4
f 262/2/4 259/2/4 263/2/4
f 264/2/4 265/2/4 266/2/4
f 266/2/4 265/2/4 267/2/4
f 268/2/4 269/2/4 272/2/4
f 272/2/4 269/2/4 273/2/4
f 270/2/4 271/2/4 275/2/4
f 275/2/4 271/2/4 276/2/4
f 274/2/4 275/2/4 279/2/4
f 279/2/4 275/2/4 280/2/4
f 277/2/4 278/2/4 281/2/4
f 281/2/4 278/2/4 282/2/4
f 285/3/5 284/3/5 283/3/5
f 286/3/5 284/3/5 285/3/5
f 291/1/5 288/1/5 287/1/5
f 292/1/5 288/1/5 291/1/5
f 293/1/5 290/1/5 289/1/5
f 294/1/5 290/1/5 293/1/5
f 299/1/5 296/1/5 295/1/5
f 300/1/5 296/1/5 299/1/5
f 301/1/5 298/1/5 297/1/5
f 302/1/5 298/1/5 301/1/5
f 307/2/5 304/2/5 303/2/5
f 308/2/5 304/2/5 307/2/5
f 309/2/5 306/2/5 305/2/5
f 310/2/5 306/2/5 309/2/5
f 317/2/5 312/2/5 311/2/5
f 318/2/5 312/2/5 317/2/5
f 319/2/5 314/2/5 313/2/5
f 320/2/5 314/2/5 319/2/5
f 321/2/5 316/2/5 315/2/5
f 322/2/5 316/2/5 321/2/5
f 325/2/5 324/2/5 323/2/5
f 326/2/5 324/2/5 325/2/5
f 329/2/5 328/2/5 327/2/5
f 330/2/5 328/2/5 329/2/5
f 333/2/5 332/2/5 331/2/5
f 334/2/5 332/2/5 333/2/5
f 337/2/5 336/2/5 335/2/5
f 338/2/5 336/2/5 337/2/5
f 341/2/5 340/2/5 339/2/5
f 342/2/5 340/2/5 341/2/5
f 343/2/6 344/2/6 347/2/6
f 347/2/6 344/2/6 348/2/6
f 345/2/6 346/2/6 349/2/6
f 349/2/6 346/2/6 350/2/6
f 351/2/6 352/2/6 357/2/6
f 357/2/6 352/2/6 358/2/6
f 353/2/6 354/2/6 359/2/6
f 359/2/6 354/2/6 360/2/6
f 355/2/6 356/2/6 361/2/6
f 361/2/6 356/2/6 362/2/6
f 363/2/6 364/2/6 365/2/6
f 365/2/6 364/2/6 366/2/6
f 367/2/6 368/2/6 369/2/6
f 369/2/6 368/2/6 370/2/6
f 371/2/6 372/2/6 373/2/6
f 373/2/6 372/2/6 374/2/6
f 375/2/6 376/2/6 379/2/6
f 379/2/6 376/2/6 380/2/6
f 377/1/6 378/1/6 383/1/6
f 377/1/6 383/1/6 384/1/6
f 384/1/6 383/1/6 385/1/6
f 381/1/6 382/1/6 386/1/6
f 386/1/6 382/1/6 387/1/6
f 384/2/6 385/2/6 388/2/6
f 388/2/6 385/2/6 389/2/6
f 386/2/6 387/2/6 392/2/6
f 392/2/6 387/2/6 393/2/6
f 390/2/6 391/2/6 394/2/6
f 394/2/6 391/2/6 395/2/6
f 396/1/6 397/1/6 400/1/6
f 400/1/6 397/1/6 401/1/6
f 400/2/6 401/2/6 402/2/6
f 402/2/6 401/2/6 403/2/6
f 398/1/6 399/1/6 404/1/6
f 404/1/6 399/1/6 405/1/6
f 402/1/6 403/1/6 406/1/6
f 406/1/6 403/1/6 407/1/6
f 404/2/6 405/2/6 408/2/6
f 408/2/6 405/2/6 409/2/6
f 410/1/6 411/1/6 412/1/6
f 412/1/6 411/1/6 413/1/6
